<svg width="191" height="65" viewBox="0 0 191 65" fill="none" xmlns="http://www.w3.org/2000/svg">
<rect x="0.795702" y="1.37874" width="189.377" height="62.0648" rx="10.3441" fill="#0C0D10"/>
<rect x="0.795702" y="1.37874" width="189.377" height="62.0648" rx="10.3441" stroke="#A6A6A6" stroke-width="1.5914"/>
<path d="M129.742 31.1394V34.7853H127.457V37.1763H129.742V45.3004C129.742 48.0745 130.997 49.1841 134.154 49.1841C134.709 49.1841 135.237 49.118 135.7 49.0388V46.6742C135.303 46.7138 135.052 46.7403 134.616 46.7403C133.203 46.7403 132.582 46.0798 132.582 44.5738V37.1763H135.7V34.7853H132.582V31.1394H129.742Z" fill="white"/>
<path d="M143.742 49.3822C147.943 49.3822 150.519 46.5685 150.519 41.9054C150.519 37.2688 147.93 34.4419 143.742 34.4419C139.542 34.4419 136.952 37.2688 136.952 41.9054C136.952 46.5685 139.528 49.3822 143.742 49.3822ZM143.742 46.8592C141.272 46.8592 139.885 45.0494 139.885 41.9054C139.885 38.7879 141.272 36.9649 143.742 36.9649C146.199 36.9649 147.6 38.7879 147.6 41.9054C147.6 45.0362 146.199 46.8592 143.742 46.8592Z" fill="white"/>
<path d="M152.723 49.1048H155.563V40.6109C155.563 38.5898 157.082 37.2291 159.235 37.2291C159.737 37.2291 160.583 37.3216 160.821 37.4009V34.6004C160.517 34.5211 159.975 34.4815 159.552 34.4815C157.677 34.4815 156.078 35.5119 155.669 36.9253H155.457V34.7193H152.723V49.1048Z" fill="white"/>
<path d="M167.873 36.8593C169.973 36.8593 171.347 38.3256 171.413 40.5845H164.147C164.306 38.3388 165.772 36.8593 167.873 36.8593ZM171.4 45.2211C170.871 46.344 169.695 46.9648 167.978 46.9648C165.706 46.9648 164.24 45.3664 164.147 42.8433V42.6848H174.306V41.6941C174.306 37.1763 171.888 34.4419 167.886 34.4419C163.83 34.4419 161.254 37.3612 161.254 41.9583C161.254 46.5553 163.777 49.3822 167.899 49.3822C171.188 49.3822 173.487 47.7971 174.134 45.2211H171.4Z" fill="white"/>
<path d="M111.117 43.7925C111.336 47.3249 114.28 49.584 118.661 49.584C123.343 49.584 126.273 47.2154 126.273 43.4365C126.273 40.4654 124.603 38.8224 120.55 37.8777L118.373 37.3437C115.799 36.7413 114.759 35.9334 114.759 34.5232C114.759 32.7433 116.374 31.5795 118.798 31.5795C121.098 31.5795 122.686 32.7159 122.974 34.5369H125.959C125.781 31.2098 122.851 28.8685 118.839 28.8685C114.526 28.8685 111.651 31.2098 111.651 34.7286C111.651 37.6312 113.28 39.3564 116.854 40.1916L119.4 40.8077C122.015 41.4238 123.165 42.3275 123.165 43.8335C123.165 45.5861 121.358 46.8594 118.894 46.8594C116.251 46.8594 114.416 45.6682 114.156 43.7925H111.117Z" fill="white"/>
<path d="M81.6959 34.4815C79.7409 34.4815 78.05 35.459 77.1781 37.097H76.9668V34.7193H74.2323V53.8868H77.0725V46.9252H77.297C78.05 48.4443 79.6748 49.3426 81.7224 49.3426C85.3551 49.3426 87.6668 46.4761 87.6668 41.9054C87.6668 37.3348 85.3551 34.4815 81.6959 34.4815ZM80.8901 46.7931C78.5123 46.7931 77.0196 44.9173 77.0196 41.9187C77.0196 38.9068 78.5123 37.031 80.9033 37.031C83.3075 37.031 84.7474 38.8672 84.7474 41.9054C84.7474 44.9569 83.3075 46.7931 80.8901 46.7931Z" fill="white"/>
<path d="M97.6049 34.4815C95.6498 34.4815 93.9589 35.459 93.0871 37.097H92.8757V34.7193H90.1413V53.8868H92.9814V46.9252H93.206C93.9589 48.4443 95.5838 49.3426 97.6313 49.3426C101.264 49.3426 103.576 46.4761 103.576 41.9054C103.576 37.3348 101.264 34.4815 97.6049 34.4815ZM96.7991 46.7931C94.4213 46.7931 92.9286 44.9173 92.9286 41.9187C92.9286 38.9068 94.4213 37.031 96.8123 37.031C99.2165 37.031 100.656 38.8672 100.656 41.9054C100.656 44.9569 99.2165 46.7931 96.7991 46.7931Z" fill="white"/>
<path d="M69.1367 49.1048H72.3953L65.2619 29.3478H61.9622L54.8289 49.1048H57.9779L59.7989 43.8609H67.3294L69.1367 49.1048ZM63.4546 32.935H63.6874L66.5489 41.2869H60.5794L63.4546 32.935Z" fill="white"/>
<path d="M56.7341 14.4457V23.9766H60.1753C63.0154 23.9766 64.6601 22.2263 64.6601 19.1814C64.6601 16.1828 63.0022 14.4457 60.1753 14.4457H56.7341ZM58.2136 15.7931H60.0102C61.9851 15.7931 63.1541 17.048 63.1541 19.2012C63.1541 21.3875 62.0049 22.6292 60.0102 22.6292H58.2136V15.7931Z" fill="white"/>
<path d="M69.697 24.1153C71.7974 24.1153 73.0853 22.7085 73.0853 20.3769C73.0853 18.0586 71.7908 16.6451 69.697 16.6451C67.5966 16.6451 66.3021 18.0586 66.3021 20.3769C66.3021 22.7085 67.59 24.1153 69.697 24.1153ZM69.697 22.8538C68.4619 22.8538 67.7684 21.9489 67.7684 20.3769C67.7684 18.8181 68.4619 17.9067 69.697 17.9067C70.9255 17.9067 71.6257 18.8181 71.6257 20.3769C71.6257 21.9423 70.9255 22.8538 69.697 22.8538Z" fill="white"/>
<path d="M84.0535 16.7838H82.6335L81.3521 22.2725H81.2398L79.7603 16.7838H78.3997L76.9202 22.2725H76.8145L75.5265 16.7838H74.0867L76.0681 23.9766H77.5278L79.0073 18.6794H79.1196L80.6057 23.9766H82.0786L84.0535 16.7838Z" fill="white"/>
<path d="M85.6889 23.9766H87.109V19.7693C87.109 18.6464 87.7761 17.9463 88.8263 17.9463C89.8764 17.9463 90.3784 18.5209 90.3784 19.6768V23.9766H91.7985V19.3201C91.7985 17.6094 90.9134 16.6451 89.3084 16.6451C88.2252 16.6451 87.5119 17.1273 87.1618 17.9265H87.0561V16.7838H85.6889V23.9766Z" fill="white"/>
<path d="M94.0349 23.9766H95.455V13.9767H94.0349V23.9766Z" fill="white"/>
<path d="M100.796 24.1153C102.896 24.1153 104.184 22.7085 104.184 20.3769C104.184 18.0586 102.89 16.6451 100.796 16.6451C98.6954 16.6451 97.4008 18.0586 97.4008 20.3769C97.4008 22.7085 98.6888 24.1153 100.796 24.1153ZM100.796 22.8538C99.5606 22.8538 98.8671 21.9489 98.8671 20.3769C98.8671 18.8181 99.5606 17.9067 100.796 17.9067C102.024 17.9067 102.724 18.8181 102.724 20.3769C102.724 21.9423 102.024 22.8538 100.796 22.8538Z" fill="white"/>
<path d="M108.415 22.9C107.642 22.9 107.081 22.5235 107.081 21.8762C107.081 21.2422 107.53 20.9053 108.521 20.8393L110.278 20.727V21.328C110.278 22.2197 109.485 22.9 108.415 22.9ZM108.052 24.0955C108.996 24.0955 109.782 23.686 110.212 22.9661H110.324V23.9766H111.691V19.0625C111.691 17.5434 110.674 16.6451 108.871 16.6451C107.24 16.6451 106.077 17.4377 105.932 18.6728H107.306C107.464 18.1643 108.012 17.8736 108.805 17.8736C109.776 17.8736 110.278 18.303 110.278 19.0625V19.6834L108.329 19.7957C106.619 19.9014 105.654 20.6477 105.654 21.9423C105.654 23.2567 106.665 24.0955 108.052 24.0955Z" fill="white"/>
<path d="M116.51 24.0955C117.501 24.0955 118.34 23.6265 118.769 22.8406H118.881V23.9766H120.242V13.9767H118.822V17.9265H118.716C118.327 17.1339 117.494 16.6649 116.51 16.6649C114.694 16.6649 113.525 18.1048 113.525 20.3769C113.525 22.6556 114.681 24.0955 116.51 24.0955ZM116.913 17.9397C118.102 17.9397 118.848 18.8842 118.848 20.3835C118.848 21.8894 118.109 22.8207 116.913 22.8207C115.711 22.8207 114.991 21.9027 114.991 20.3769C114.991 18.8644 115.718 17.9397 116.913 17.9397Z" fill="white"/>
<path d="M129.451 24.1153C131.551 24.1153 132.839 22.7085 132.839 20.3769C132.839 18.0586 131.544 16.6451 129.451 16.6451C127.35 16.6451 126.056 18.0586 126.056 20.3769C126.056 22.7085 127.344 24.1153 129.451 24.1153ZM129.451 22.8538C128.216 22.8538 127.522 21.9489 127.522 20.3769C127.522 18.8181 128.216 17.9067 129.451 17.9067C130.679 17.9067 131.379 18.8181 131.379 20.3769C131.379 21.9423 130.679 22.8538 129.451 22.8538Z" fill="white"/>
<path d="M134.719 23.9766H136.139V19.7693C136.139 18.6464 136.806 17.9463 137.856 17.9463C138.906 17.9463 139.408 18.5209 139.408 19.6768V23.9766H140.828V19.3201C140.828 17.6094 139.943 16.6451 138.338 16.6451C137.255 16.6451 136.542 17.1273 136.192 17.9265H136.086V16.7838H134.719V23.9766Z" fill="white"/>
<path d="M147.369 14.9939V16.8168H146.226V18.0123H147.369V22.0744C147.369 23.4614 147.996 24.0162 149.575 24.0162C149.852 24.0162 150.116 23.9832 150.347 23.9436V22.7613C150.149 22.7811 150.024 22.7943 149.806 22.7943C149.099 22.7943 148.789 22.4641 148.789 21.7111V18.0123H150.347V16.8168H148.789V14.9939H147.369Z" fill="white"/>
<path d="M152.254 23.9766H153.674V19.7759C153.674 18.686 154.321 17.9529 155.483 17.9529C156.487 17.9529 157.022 18.5341 157.022 19.6834V23.9766H158.442V19.3333C158.442 17.6226 157.498 16.6517 155.966 16.6517C154.882 16.6517 154.123 17.1339 153.773 17.9397H153.66V13.9767H152.254V23.9766Z" fill="white"/>
<path d="M163.565 17.8538C164.615 17.8538 165.302 18.587 165.335 19.7164H161.703C161.782 18.5936 162.515 17.8538 163.565 17.8538ZM165.329 22.0348C165.065 22.5962 164.477 22.9066 163.618 22.9066C162.482 22.9066 161.749 22.1074 161.703 20.8459V20.7666H166.782V20.2712C166.782 18.0123 165.573 16.6451 163.572 16.6451C161.544 16.6451 160.256 18.1048 160.256 20.4033C160.256 22.7019 161.518 24.1153 163.578 24.1153C165.223 24.1153 166.372 23.3227 166.696 22.0348H165.329Z" fill="white"/>
<path d="M39.4191 32.8898C39.4536 30.2147 40.8902 27.6834 43.1694 26.2822C41.7316 24.2288 39.3233 22.9269 36.8178 22.8485C34.1455 22.568 31.5547 24.4476 30.1929 24.4476C28.8048 24.4476 26.7081 22.8764 24.4504 22.9228C21.5075 23.0179 18.7639 24.6911 17.3321 27.2639C14.2544 32.5926 16.5501 40.424 19.4984 44.7313C20.9734 46.8405 22.6974 49.1965 24.9531 49.1129C27.1605 49.0214 27.9849 47.7054 30.6494 47.7054C33.2891 47.7054 34.0626 49.1129 36.3641 49.0598C38.7327 49.0214 40.2251 46.9413 41.6484 44.8121C42.7082 43.3093 43.5238 41.6483 44.0648 39.8907C41.2812 38.7134 39.4224 35.9121 39.4191 32.8898Z" fill="white"/>
<path d="M35.0719 20.0158C36.3634 18.4654 36.9997 16.4727 36.8456 14.4608C34.8725 14.668 33.0499 15.611 31.741 17.1019C30.4611 18.5586 29.795 20.5163 29.9209 22.4513C31.8947 22.4716 33.8351 21.5541 35.0719 20.0158Z" fill="white"/>
</svg>
