<svg width="25" height="25" viewBox="0 0 25 25" fill="none" xmlns="http://www.w3.org/2000/svg">
<path fill-rule="evenodd" clip-rule="evenodd" d="M3.16731 3.06684C3.31658 2.93718 3.50094 2.85467 3.69709 2.82975C3.89323 2.80483 4.09236 2.83862 4.26931 2.92684L22.2693 11.9268C22.4357 12.0098 22.5757 12.1375 22.6736 12.2956C22.7714 12.4537 22.8232 12.6359 22.8232 12.8218C22.8232 13.0078 22.7714 13.19 22.6736 13.3481C22.5757 13.5062 22.4357 13.6339 22.2693 13.7168L4.26931 22.7168C4.09238 22.8054 3.89316 22.8394 3.69686 22.8147C3.50056 22.79 3.31601 22.7076 3.16656 22.5779C3.01711 22.4483 2.90947 22.2772 2.85727 22.0864C2.80507 21.8955 2.81065 21.6935 2.87331 21.5058L5.43531 13.8218H10.8223C11.0875 13.8218 11.3419 13.7165 11.5294 13.529C11.717 13.3414 11.8223 13.0871 11.8223 12.8218C11.8223 12.5566 11.717 12.3023 11.5294 12.1147C11.3419 11.9272 11.0875 11.8218 10.8223 11.8218H5.43531L2.87231 4.13784C2.80998 3.95026 2.80464 3.7484 2.85696 3.55778C2.90929 3.36715 3.01794 3.19632 3.16731 3.06684Z" fill="black"/>
</svg>
