<svg width="24" height="25" viewBox="0 0 24 25" fill="none" xmlns="http://www.w3.org/2000/svg">
<g clip-path="url(#clip0_4826_17284)">
<path d="M24 12.7832C24 6.15581 18.6274 0.783218 12 0.783218C5.37259 0.783218 0 6.15581 0 12.7832C0 18.411 3.87432 23.1331 9.10108 24.4298V16.4502H6.62659V12.7832H9.10108V11.2031C9.10108 7.11868 10.9495 5.22557 14.9594 5.22557C15.7196 5.22557 17.0314 5.37461 17.568 5.52369V8.84789C17.2848 8.81808 16.7929 8.80315 16.1817 8.80315C14.214 8.80315 13.4538 9.54849 13.4538 11.4863V12.7832H17.3734L16.7001 16.4502H13.4538V24.6953C19.3955 23.9777 24 18.9185 24 12.7832Z" fill="#0866FF"/>
<path d="M16.6999 16.4502L17.3733 12.7832H13.4537V11.4863C13.4537 9.54845 14.2139 8.80315 16.1816 8.80315C16.7928 8.80315 17.2847 8.81803 17.5679 8.84784V5.5237C17.0313 5.37461 15.7195 5.22552 14.9593 5.22552C10.9494 5.22552 9.10096 7.11869 9.10096 11.2031V12.7832H6.62646V16.4502H9.10096V24.4298C10.0294 24.6601 11.0002 24.7832 11.9999 24.7832C12.4921 24.7832 12.9771 24.7529 13.4537 24.6953V16.4502H16.6999Z" fill="white"/>
</g>
<defs>
<clipPath id="clip0_4826_17284">
<rect width="24" height="24" fill="white" transform="translate(0 0.783203)"/>
</clipPath>
</defs>
</svg>
