<svg width="36" height="37" viewBox="0 0 36 37" fill="none" xmlns="http://www.w3.org/2000/svg">
<path d="M6.61279 18.4641V22.186C6.61279 26.9331 6.61279 29.3066 7.90901 30.9143C8.17088 31.2391 8.46672 31.5349 8.79151 31.7967C10.3992 33.093 12.7727 33.093 17.5197 33.093C18.552 33.093 19.0679 33.093 19.5406 32.9262C19.6389 32.8915 19.7351 32.8516 19.8292 32.8067C20.2814 32.5903 20.6462 32.2255 21.3761 31.4956L28.305 24.5667C29.1507 23.721 29.5735 23.2982 29.7963 22.7605C30.0189 22.2229 30.0189 21.6248 30.0189 20.4289V15.5384C30.0189 10.0215 30.0189 7.26308 28.305 5.5492C26.5912 3.83533 23.8327 3.83533 18.3158 3.83533M19.7787 32.3615V31.6301C19.7787 27.4925 19.7787 25.4237 21.0642 24.1382C22.3496 22.8528 24.4184 22.8528 28.556 22.8528H29.2875" stroke="#7745A2" stroke-width="2.19432" stroke-linecap="round" stroke-linejoin="round"/>
<path d="M15.3901 8.22397C14.5272 7.33624 12.2307 3.83533 11.0014 3.83533C9.77222 3.83533 7.47566 7.33624 6.61279 8.22397M11.0014 5.29821V15.5384" stroke="#7745A2" stroke-width="2.19432" stroke-linecap="round" stroke-linejoin="round"/>
</svg>
