<svg width="24" height="25" viewBox="0 0 24 25" fill="none" xmlns="http://www.w3.org/2000/svg">
<g clip-path="url(#clip0_4826_17289)">
<path d="M22.2283 0.783203H1.77167C1.30179 0.783203 0.851161 0.969861 0.518909 1.30211C0.186657 1.63436 0 2.08499 0 2.55487V23.0115C0 23.4814 0.186657 23.932 0.518909 24.2643C0.851161 24.5965 1.30179 24.7832 1.77167 24.7832H22.2283C22.6982 24.7832 23.1488 24.5965 23.4811 24.2643C23.8133 23.932 24 23.4814 24 23.0115V2.55487C24 2.08499 23.8133 1.63436 23.4811 1.30211C23.1488 0.969861 22.6982 0.783203 22.2283 0.783203ZM7.15333 21.2282H3.545V9.76654H7.15333V21.2282ZM5.34667 8.1782C4.93736 8.1759 4.53792 8.0524 4.19873 7.82329C3.85955 7.59418 3.59584 7.26973 3.44088 6.89089C3.28591 6.51205 3.24665 6.0958 3.32803 5.69466C3.40941 5.29352 3.6078 4.92548 3.89816 4.63698C4.18851 4.34849 4.55782 4.15247 4.95947 4.07366C5.36112 3.99486 5.77711 4.0368 6.15495 4.19419C6.53279 4.35158 6.85554 4.61737 7.08247 4.95802C7.30939 5.29866 7.43032 5.69889 7.43 6.1082C7.43386 6.38224 7.38251 6.65424 7.27901 6.90801C7.17551 7.16177 7.02198 7.3921 6.82757 7.58527C6.63316 7.77844 6.40185 7.93049 6.14742 8.03235C5.893 8.13422 5.62067 8.18382 5.34667 8.1782ZM20.4533 21.2382H16.8467V14.9765C16.8467 13.1299 16.0617 12.5599 15.0483 12.5599C13.9783 12.5599 12.9283 13.3665 12.9283 15.0232V21.2382H9.32V9.77487H12.79V11.3632H12.8367C13.185 10.6582 14.405 9.4532 16.2667 9.4532C18.28 9.4532 20.455 10.6482 20.455 14.1482L20.4533 21.2382Z" fill="#0A66C2"/>
</g>
<defs>
<clipPath id="clip0_4826_17289">
<rect width="24" height="24" fill="white" transform="translate(0 0.783203)"/>
</clipPath>
</defs>
</svg>
