<svg width="27" height="22" viewBox="0 0 27 22" fill="none" xmlns="http://www.w3.org/2000/svg">
<path d="M22.8286 11.5475L15.425 17.3964C15.2706 17.5183 15.0613 17.5868 14.843 17.5868C14.6247 17.5868 14.4153 17.5183 14.261 17.3964C14.1066 17.2744 14.0199 17.109 14.0199 16.9366C14.0199 16.7641 14.1066 16.5987 14.261 16.4768L20.261 11.7376H4.1488C3.93063 11.7376 3.72139 11.6691 3.56711 11.5472C3.41284 11.4253 3.32617 11.26 3.32617 11.0877C3.32617 10.9153 3.41284 10.75 3.56711 10.6282C3.72139 10.5063 3.93063 10.4378 4.1488 10.4378H20.261L14.261 5.69859C14.1066 5.57664 14.0199 5.41125 14.0199 5.2388C14.0199 5.06635 14.1066 4.90096 14.261 4.77901C14.4153 4.65707 14.6247 4.58856 14.843 4.58856C15.0613 4.58856 15.2706 4.65707 15.425 4.77901L22.8286 10.6279C22.9051 10.6883 22.9658 10.7599 23.0072 10.8388C23.0486 10.9177 23.0699 11.0023 23.0699 11.0877C23.0699 11.1731 23.0486 11.2577 23.0072 11.3365C22.9658 11.4154 22.9051 11.4871 22.8286 11.5475Z" fill="black"/>
</svg>
