<svg width="36" height="36" viewBox="0 0 36 36" fill="none" xmlns="http://www.w3.org/2000/svg">
<path d="M19.7787 32.5338C18.5818 32.5338 17.4384 32.0347 15.1515 31.0364C12.4823 29.8714 10.439 28.9794 9.02138 28.1452H3.68701M19.7787 32.5338C20.9756 32.5338 22.119 32.0347 24.406 31.0364C30.0985 28.5517 32.9447 27.3093 32.9447 25.2194V9.85913M19.7787 32.5338V16.4421M6.61278 9.85913V14.2478" stroke="#7745A2" stroke-width="2.19432" stroke-linecap="round" stroke-linejoin="round"/>
<path d="M14.404 14.5278L10.1306 12.46C7.7854 11.3252 6.61279 10.7578 6.61279 9.85921C6.61279 8.96067 7.7854 8.39326 10.1306 7.25843L14.404 5.1906C17.0414 3.91437 18.3602 3.27625 19.7787 3.27625C21.1973 3.27625 22.5161 3.91435 25.1535 5.1906L29.4269 7.25843C31.772 8.39326 32.9447 8.96067 32.9447 9.85921C32.9447 10.7578 31.772 11.3252 29.4269 12.46L25.1535 14.5278C22.5161 15.8041 21.1973 16.4422 19.7787 16.4422C18.3602 16.4422 17.0414 15.8041 14.404 14.5278Z" stroke="#7745A2" stroke-width="2.19432" stroke-linecap="round" stroke-linejoin="round"/>
<path d="M27.293 6.22485L12.27 13.4942" stroke="#7745A2" stroke-width="2.19432" stroke-linecap="round" stroke-linejoin="round"/>
<path d="M3.68701 19.3682H8.07566" stroke="#7745A2" stroke-width="2.19432" stroke-linecap="round" stroke-linejoin="round"/>
<path d="M3.68701 23.7568H8.07566" stroke="#7745A2" stroke-width="2.19432" stroke-linecap="round" stroke-linejoin="round"/>
</svg>
