<svg width="216" height="65" viewBox="0 0 216 65" fill="none" xmlns="http://www.w3.org/2000/svg">
<rect x="1.76445" y="1.37874" width="213.248" height="62.0648" rx="7.16132" fill="black"/>
<rect x="1.76445" y="1.37874" width="213.248" height="62.0648" rx="7.16132" stroke="#A6A6A6" stroke-width="1.5914"/>
<path d="M171.143 48.3252H174.113V28.4301H171.143V48.3252ZM197.89 35.5971L194.486 44.2224H194.384L190.851 35.5971H187.653L192.952 47.652L189.93 54.3582H193.027L201.192 35.5971H197.89ZM181.048 46.0655C180.077 46.0655 178.72 45.5787 178.72 44.3759C178.72 42.8404 180.41 42.2517 181.868 42.2517C183.173 42.2517 183.789 42.5328 184.581 42.9169C184.35 44.7601 182.764 46.0655 181.048 46.0655ZM181.408 35.1619C179.258 35.1619 177.031 36.1092 176.11 38.208L178.745 39.3083C179.309 38.208 180.358 37.8499 181.459 37.8499C182.994 37.8499 184.556 38.7705 184.581 40.4092V40.6137C184.043 40.3066 182.891 39.846 181.484 39.846C178.642 39.846 175.75 41.4069 175.75 44.3249C175.75 46.9868 178.08 48.7019 180.69 48.7019C182.686 48.7019 183.789 47.8061 184.478 46.7562H184.581V48.2929H187.449V40.6646C187.449 37.1325 184.81 35.1619 181.408 35.1619ZM163.056 38.0189H158.832V31.1996H163.056C165.276 31.1996 166.536 33.0372 166.536 34.6092C166.536 36.1509 165.276 38.0189 163.056 38.0189ZM162.979 28.4301H155.864V48.3252H158.832V40.7878H162.979C166.27 40.7878 169.506 38.4056 169.506 34.6092C169.506 30.8135 166.27 28.4301 162.979 28.4301ZM124.179 46.0692C122.127 46.0692 120.41 44.351 120.41 41.9931C120.41 39.6079 122.127 37.8654 124.179 37.8654C126.204 37.8654 127.794 39.6079 127.794 41.9931C127.794 44.351 126.204 46.0692 124.179 46.0692ZM127.588 36.7111H127.486C126.819 35.9165 125.537 35.1986 123.923 35.1986C120.538 35.1986 117.436 38.1731 117.436 41.9931C117.436 45.787 120.538 48.7355 123.923 48.7355C125.537 48.7355 126.819 48.0174 127.486 47.1975H127.588V48.171C127.588 50.7614 126.204 52.1452 123.974 52.1452C122.154 52.1452 121.026 50.8379 120.564 49.7357L117.975 50.8124C118.718 52.6064 120.691 54.812 123.974 54.812C127.461 54.812 130.409 52.7606 130.409 47.7607V35.6089H127.588V36.7111ZM132.461 48.3252H135.434V28.4301H132.461V48.3252ZM139.818 41.7619C139.742 39.1466 141.845 37.8138 143.356 37.8138C144.536 37.8138 145.535 38.4037 145.87 39.2492L139.818 41.7619ZM149.048 39.5053C148.484 37.9935 146.766 35.1986 143.254 35.1986C139.766 35.1986 136.87 37.9419 136.87 41.967C136.87 45.7616 139.742 48.7355 143.586 48.7355C146.688 48.7355 148.484 46.8388 149.228 45.736L146.92 44.1974C146.151 45.3257 145.1 46.0692 143.586 46.0692C142.075 46.0692 140.997 45.3768 140.306 44.0179L149.355 40.2749L149.048 39.5053ZM76.9445 37.2754V40.1468H83.8154C83.6103 41.7619 83.0719 42.9411 82.2514 43.7617C81.2512 44.7612 79.6872 45.8641 76.9445 45.8641C72.7141 45.8641 69.407 42.4543 69.407 38.2241C69.407 33.9938 72.7141 30.5836 76.9445 30.5836C79.2265 30.5836 80.8925 31.4811 82.1233 32.6349L84.1493 30.609C82.4311 28.9684 80.1496 27.7122 76.9445 27.7122C71.1494 27.7122 66.2783 32.4297 66.2783 38.2241C66.2783 44.0179 71.1494 48.7355 76.9445 48.7355C80.072 48.7355 82.4311 47.7098 84.2768 45.787C86.1741 43.8898 86.764 41.2235 86.764 39.0696C86.764 38.4037 86.7123 37.7883 86.6098 37.2754H76.9445ZM94.5756 46.0692C92.5241 46.0692 90.7549 44.3771 90.7549 41.967C90.7549 39.5314 92.5241 37.8654 94.5756 37.8654C96.6262 37.8654 98.3954 39.5314 98.3954 41.967C98.3954 44.3771 96.6262 46.0692 94.5756 46.0692ZM94.5756 35.1986C90.8313 35.1986 87.7809 38.0444 87.7809 41.967C87.7809 45.8641 90.8313 48.7355 94.5756 48.7355C98.3184 48.7355 101.369 45.8641 101.369 41.967C101.369 38.0444 98.3184 35.1986 94.5756 35.1986ZM109.396 46.0692C107.346 46.0692 105.576 44.3771 105.576 41.967C105.576 39.5314 107.346 37.8654 109.396 37.8654C111.447 37.8654 113.216 39.5314 113.216 41.967C113.216 44.3771 111.447 46.0692 109.396 46.0692ZM109.396 35.1986C105.653 35.1986 102.603 38.0444 102.603 41.967C102.603 45.8641 105.653 48.7355 109.396 48.7355C113.14 48.7355 116.191 45.8641 116.191 41.967C116.191 38.0444 113.14 35.1986 109.396 35.1986Z" fill="white"/>
<path d="M71.749 21.6443C70.3223 21.6443 69.095 21.1422 68.1056 20.1529C67.1156 19.163 66.6143 17.9235 66.6143 16.4822C66.6143 15.0408 67.1159 13.8035 68.1056 12.8114C69.095 11.8219 70.3223 11.32 71.749 11.32C72.4759 11.32 73.1543 11.4456 73.8026 11.707C74.4512 11.9685 74.9818 12.3314 75.3996 12.8064L75.4981 12.9186L74.3851 14.0313L74.2738 13.8946C73.9968 13.5541 73.6443 13.2896 73.1978 13.0973C72.7528 12.9055 72.2655 12.8169 71.749 12.8169C70.7441 12.8169 69.9103 13.1582 69.214 13.852C69.2138 13.8521 69.2135 13.8521 69.2133 13.8523C68.5329 14.5601 68.1907 15.4218 68.1907 16.4822C68.1907 17.5434 68.5333 18.4053 69.2146 19.1133C69.9109 19.8067 70.7446 20.1498 71.749 20.1499C72.6689 20.1499 73.4298 19.8931 74.0279 19.3846H74.0283C74.5851 18.9114 74.9193 18.272 75.0375 17.4569H71.5899V15.9898H76.5276L76.5487 16.1241C76.5892 16.382 76.6177 16.6309 76.6177 16.8701C76.6177 18.239 76.2004 19.3564 75.3816 20.1784C74.4573 21.1583 73.2417 21.6443 71.749 21.6443L71.749 21.6443ZM114.624 21.6443C113.195 21.6443 111.982 21.142 111.006 20.1529C111.006 20.1528 111.006 20.1528 111.005 20.1526C111.005 20.1525 111.005 20.1525 111.005 20.1523C110.027 19.1739 109.542 17.9341 109.542 16.4821C109.542 15.0302 110.027 13.7903 111.005 12.812C111.005 12.8119 111.005 12.8118 111.005 12.8116L111.006 12.8113C111.983 11.8221 113.195 11.32 114.624 11.32C116.05 11.32 117.264 11.8222 118.24 12.8262C119.219 13.8045 119.704 15.0419 119.704 16.4821C119.704 17.9341 119.219 19.1739 118.241 20.1523L118.241 20.1526C117.263 21.1424 116.039 21.6443 114.624 21.6443L114.624 21.6443ZM78.0307 21.4304V11.5339H78.1899H83.9413V13.0308H79.5799V15.7486H83.5136V17.2157H79.5799V19.936H83.9413V21.4304H78.0307ZM87.5586 21.4304V13.0308H84.8831V11.5339H91.7833V13.0308H91.6242H89.1078V21.4304H87.5586ZM96.1932 21.4304V11.5339H97.7424V11.693V21.4304H96.1932ZM101.642 21.4304V13.0308H98.9664V11.5339H105.867V13.0308H105.707H103.191V21.4304H101.642ZM121.079 21.4304V11.5339H122.826L127.272 18.6511L127.234 17.2999V11.5339H128.783V21.4304H127.25L122.59 13.9536L122.629 15.3038V15.306V21.4304H121.079ZM114.624 20.1498C115.629 20.1498 116.45 19.8071 117.118 19.1145L117.119 19.1132L117.12 19.1123C117.799 18.4338 118.13 17.5605 118.13 16.4821C118.13 15.4063 117.798 14.5301 117.12 13.8519L117.119 13.851L117.118 13.85C116.45 13.1576 115.629 12.8169 114.624 12.8169C113.617 12.8169 112.797 13.157 112.116 13.8494L112.115 13.85C111.45 14.5446 111.118 15.4066 111.118 16.4821C111.118 17.5601 111.45 18.4194 112.115 19.1141L112.116 19.1147C112.797 19.8073 113.618 20.1498 114.624 20.1498V20.1498Z" fill="white"/>
<path d="M33.9346 31.4932L16.9917 49.4761C16.9923 49.4798 16.9936 49.4829 16.9942 49.4866C17.5138 51.4392 19.2973 52.8771 21.4141 52.8771C22.2602 52.8771 23.0546 52.6483 23.7359 52.2467L23.79 52.215L42.8614 41.2101L33.9346 31.4932Z" fill="#EA4335"/>
<path d="M51.0753 28.4308L51.0591 28.4197L42.8255 23.6466L33.5493 31.9009L42.8578 41.2081L51.0479 36.4824C52.4838 35.7072 53.4586 34.1935 53.4586 32.4479C53.4586 30.7148 52.4969 29.2086 51.0753 28.4308Z" fill="#FBBC04"/>
<path d="M16.9918 15.3452C16.89 15.7208 16.8364 16.1142 16.8364 16.5227V48.2992C16.8364 48.7069 16.8893 49.1017 16.9924 49.4759L34.5184 31.9531L16.9918 15.3452Z" fill="#4285F4"/>
<path d="M34.0601 32.411L42.8297 23.644L23.78 12.5993C23.0876 12.1846 22.2795 11.9453 21.4147 11.9453C19.298 11.9453 17.5121 13.3857 16.9923 15.3407C16.9917 15.3426 16.9917 15.3439 16.9917 15.3456L34.0601 32.411Z" fill="#34A853"/>
</svg>
