<svg width="23" height="23" viewBox="0 0 23 23" fill="none" xmlns="http://www.w3.org/2000/svg">
<path d="M11.2194 6.66913L12.5677 5.32086C14.0858 3.80274 16.0733 3.17303 18.1767 3.07013C18.9949 3.03011 19.4039 3.01009 19.7319 3.33813C20.06 3.66615 20.04 4.07522 19.9999 4.89336C19.897 6.99677 19.2673 8.98429 17.7492 10.5024L16.4009 11.8507C15.2906 12.961 14.975 13.2767 15.208 14.4811C15.4381 15.4011 15.6607 16.292 14.9917 16.961C14.1803 17.7724 13.4401 17.7724 12.6286 16.961L6.10909 10.4415C5.29763 9.62999 5.29761 8.88979 6.10909 8.07832C6.77806 7.40934 7.66895 7.63202 8.58894 7.86204C9.79332 8.09515 10.1091 7.77945 11.2194 6.66913Z" stroke="white" stroke-width="1.36136" stroke-linejoin="round"/>
<path d="M15.9341 7.13245H15.9431" stroke="white" stroke-width="1.81515" stroke-linecap="round" stroke-linejoin="round"/>
<path d="M2.77783 20.2923L7.31571 15.7544" stroke="white" stroke-width="1.36136" stroke-linecap="round"/>
<path d="M8.22314 20.2923L10.0383 18.4772" stroke="white" stroke-width="1.36136" stroke-linecap="round"/>
<path d="M2.77783 14.8468L4.59298 13.0317" stroke="white" stroke-width="1.36136" stroke-linecap="round"/>
</svg>
