<svg width="36" height="36" viewBox="0 0 36 36" fill="none" xmlns="http://www.w3.org/2000/svg">
<path d="M4.41846 17.9444C4.41846 11.3931 4.41846 8.11745 6.45368 6.08222C8.48891 4.047 11.7646 4.047 18.3158 4.047C24.8671 4.047 28.1427 4.047 30.1781 6.08222C32.2132 8.11745 32.2132 11.3931 32.2132 17.9444C32.2132 24.4956 32.2132 27.7713 30.1781 29.8066C28.1427 31.8418 24.8671 31.8418 18.3158 31.8418C11.7646 31.8418 8.48891 31.8418 6.45368 29.8066C4.41846 27.7713 4.41846 24.4956 4.41846 17.9444Z" stroke="#7745A2" stroke-width="2.19432" stroke-linejoin="round"/>
<path d="M13.1958 15.0187C11.9839 15.0187 11.0015 14.0362 11.0015 12.8243C11.0015 11.6124 11.9839 10.63 13.1958 10.63C14.4077 10.63 15.3901 11.6124 15.3901 12.8243C15.3901 14.0362 14.4077 15.0187 13.1958 15.0187Z" stroke="#7745A2" stroke-width="2.19432"/>
<path d="M23.436 25.2589C24.6479 25.2589 25.6303 24.2764 25.6303 23.0646C25.6303 21.8527 24.6479 20.8702 23.436 20.8702C22.2242 20.8702 21.2417 21.8527 21.2417 23.0646C21.2417 24.2764 22.2242 25.2589 23.436 25.2589Z" stroke="#7745A2" stroke-width="2.19432"/>
<path d="M15.3901 12.8243H25.6303" stroke="#7745A2" stroke-width="2.19432" stroke-linecap="round"/>
<path d="M21.2416 23.0646H11.0015" stroke="#7745A2" stroke-width="2.19432" stroke-linecap="round"/>
</svg>
