<svg width="24" height="25" viewBox="0 0 24 25" fill="none" xmlns="http://www.w3.org/2000/svg">
<path d="M22.2972 18.4629C18.5806 16.6632 17.9883 13.8846 17.9619 13.6785C17.93 13.4289 17.8939 13.2326 18.1692 12.9787C18.4347 12.7333 19.6126 12.004 19.9395 11.7758C20.4797 11.398 20.7176 11.0208 20.5422 10.5571C20.4196 10.2363 20.121 10.1154 19.8064 10.1154C19.7072 10.1157 19.6083 10.1268 19.5115 10.1486C18.9179 10.2774 18.3415 10.5748 18.0079 10.6552C17.9678 10.6655 17.9267 10.6711 17.8853 10.6718C17.7075 10.6718 17.64 10.5926 17.6572 10.3786C17.6989 9.72962 17.7872 8.463 17.6848 7.2798C17.5443 5.6519 17.0195 4.84531 16.3971 4.13196C16.096 3.78601 14.6979 2.2998 11.9999 2.2998C9.30182 2.2998 7.90558 3.78601 7.60635 4.12766C6.98212 4.84102 6.45784 5.64761 6.31864 7.27551C6.21624 8.45871 6.30822 9.72471 6.34624 10.3743C6.3585 10.5779 6.29596 10.6675 6.11813 10.6675C6.07674 10.6668 6.03558 10.6612 5.99549 10.6509C5.66253 10.5706 5.08613 10.2731 4.49256 10.1443C4.39574 10.1225 4.29684 10.1114 4.19761 10.1111C3.88182 10.1111 3.58442 10.2338 3.46178 10.5528C3.28641 11.0165 3.5231 11.3937 4.06516 11.7715C4.39199 11.9997 5.56994 12.7284 5.83545 12.9744C6.11016 13.2283 6.07459 13.4246 6.04271 13.6742C6.01634 13.8834 5.42338 16.662 1.70744 18.4586C1.48976 18.5641 1.11939 18.7873 1.77244 19.148C2.7977 19.7148 3.48018 19.654 4.01059 19.9957C4.46067 20.2858 4.19455 20.9114 4.52199 21.1372C4.92425 21.415 6.11322 21.1175 7.64927 21.6248C8.93697 22.0493 9.71941 23.2484 12.0029 23.2484C14.2865 23.2484 15.0916 22.0437 16.3566 21.6248C17.8896 21.1175 19.081 21.415 19.4839 21.1372C19.8107 20.9114 19.5452 20.2858 19.9953 19.9957C20.5257 19.654 21.2076 19.7148 22.2334 19.148C22.8853 18.7916 22.5149 18.5684 22.2972 18.4629Z" fill="white"/>
<path d="M23.9142 18.2515C23.7474 17.7976 23.4298 17.5547 23.068 17.3535C22.9999 17.3137 22.9374 17.2818 22.884 17.2572C22.7761 17.2014 22.6657 17.1474 22.556 17.0904C21.4283 16.4923 20.5478 15.7379 19.937 14.8436C19.7636 14.5918 19.6132 14.325 19.4876 14.0462C19.4354 13.8972 19.4379 13.8125 19.4753 13.7352C19.5124 13.6757 19.5615 13.6245 19.6194 13.5849C19.8132 13.4568 20.0131 13.3267 20.1486 13.239C20.3902 13.0826 20.5815 12.9587 20.7048 12.871C21.1677 12.5471 21.4915 12.203 21.6938 11.8184C21.835 11.5527 21.9173 11.2597 21.9352 10.9593C21.9531 10.659 21.9061 10.3583 21.7975 10.0777C21.4909 9.27047 20.7287 8.76934 19.8052 8.76934C19.6104 8.76916 19.4162 8.78972 19.2257 8.83068C19.1748 8.84172 19.1239 8.85337 19.0743 8.86625C19.0829 8.31422 19.0706 7.73151 19.0215 7.158C18.8474 5.14184 18.1416 4.08499 17.4058 3.24222C16.9346 2.7141 16.3796 2.26729 15.763 1.91978C14.6464 1.28187 13.3802 0.958008 11.9999 0.958008C10.6196 0.958008 9.35948 1.28187 8.24163 1.91978C7.6236 2.2674 7.06746 2.7151 6.59582 3.24467C5.85999 4.08745 5.15421 5.14613 4.98006 7.16046C4.931 7.73396 4.91874 8.31974 4.92671 8.86871C4.87704 8.85583 4.82676 8.84417 4.77587 8.83313C4.58543 8.79217 4.39118 8.77161 4.1964 8.7718C3.27232 8.7718 2.50889 9.27292 2.20353 10.0801C2.09437 10.3608 2.04691 10.6618 2.06437 10.9624C2.08183 11.2631 2.1638 11.5565 2.3047 11.8227C2.50767 12.2073 2.83143 12.5514 3.29439 12.8753C3.41703 12.9611 3.60896 13.085 3.85056 13.2433C3.98117 13.3279 4.17187 13.4518 4.3589 13.5757C4.42433 13.6181 4.47995 13.6739 4.522 13.7395C4.56125 13.8199 4.56248 13.9064 4.50422 14.0658C4.38032 14.3387 4.23236 14.6 4.06211 14.8467C3.46486 15.7207 2.61007 16.4617 1.51859 17.0548C0.94035 17.3615 0.339422 17.5664 0.0855607 18.2564C-0.105755 18.7772 0.0193358 19.3697 0.505597 19.869C0.684059 20.0553 0.891048 20.2121 1.11879 20.3333C1.59266 20.5938 2.09654 20.7955 2.61927 20.9338C2.72714 20.9616 2.82955 21.0075 2.92219 21.0694C3.0994 21.2245 3.07426 21.4582 3.31034 21.8005C3.42884 21.9774 3.57942 22.1305 3.75429 22.2519C4.24975 22.5942 4.80653 22.6157 5.39642 22.6384C5.92928 22.6586 6.53327 22.6819 7.22311 22.9095C7.50886 23.0039 7.80565 23.1867 8.14965 23.4002C8.97562 23.9081 10.1063 24.603 11.9987 24.603C13.891 24.603 15.0297 23.9044 15.8618 23.3947C16.2033 23.1849 16.4983 23.0039 16.776 22.9119C17.4659 22.6838 18.0699 22.6611 18.6027 22.6408C19.1926 22.6181 19.7494 22.5967 20.2449 22.2544C20.452 22.1099 20.6245 21.9214 20.7501 21.7024C20.92 21.4135 20.9157 21.2117 21.0751 21.0706C21.162 21.0116 21.2582 20.9677 21.3596 20.9405C21.8895 20.8018 22.4003 20.5982 22.8804 20.3345C23.1223 20.2047 23.3401 20.0341 23.5242 19.8303L23.5303 19.823C23.9866 19.3347 24.1012 18.7594 23.9142 18.2515ZM22.2322 19.1556C21.2063 19.7224 20.5245 19.6617 19.9941 20.0033C19.5434 20.2934 19.8101 20.9191 19.4827 21.1448C19.0804 21.4227 17.8914 21.1252 16.3554 21.6324C15.0885 22.0514 14.2803 23.256 12.0017 23.256C9.7231 23.256 8.93392 22.0538 7.64622 21.6294C6.11324 21.1221 4.92181 21.4196 4.51894 21.1417C4.19211 20.916 4.45762 20.2904 4.00754 20.0002C3.47651 19.6586 2.79464 19.7193 1.76939 19.1556C1.11634 18.795 1.4867 18.5717 1.70439 18.4662C5.42033 16.6665 6.01329 13.888 6.03965 13.6819C6.07154 13.4322 6.10711 13.2359 5.8324 12.982C5.56688 12.7367 4.38894 12.0073 4.06211 11.7792C3.52128 11.4013 3.28336 11.0241 3.45873 10.5604C3.58137 10.2396 3.88061 10.1188 4.19456 10.1188C4.29379 10.1191 4.39268 10.1302 4.4895 10.1519C5.08307 10.2807 5.65948 10.5782 5.99244 10.6585C6.03253 10.6688 6.07369 10.6744 6.11508 10.6751C6.2929 10.6751 6.35545 10.5855 6.34318 10.3819C6.30517 9.73234 6.21319 8.46633 6.31559 7.28313C6.45601 5.65524 6.98029 4.84865 7.60329 4.13529C7.90253 3.79242 9.30858 2.30621 11.9974 2.30621C14.6863 2.30621 16.096 3.78628 16.3952 4.12793C17.0189 4.84129 17.5437 5.64788 17.6829 7.27577C17.7853 8.45897 17.697 9.72559 17.6553 10.3745C17.6412 10.5886 17.7056 10.6677 17.8835 10.6677C17.9248 10.6671 17.966 10.6615 18.0061 10.6512C18.3397 10.5708 18.9161 10.2733 19.5096 10.1445C19.6065 10.1228 19.7054 10.1117 19.8046 10.1114C20.1204 10.1114 20.4178 10.2341 20.5404 10.553C20.7158 11.0167 20.4791 11.394 19.9377 11.7718C19.6108 12 18.4329 12.7287 18.1674 12.9746C17.892 13.2286 17.9282 13.4249 17.9601 13.6745C17.9865 13.8837 18.5788 16.6623 22.2954 18.4588C22.5149 18.5686 22.8853 18.7919 22.2322 19.1556Z" fill="black"/>
</svg>
