<svg width="36" height="36" viewBox="0 0 36 36" fill="none" xmlns="http://www.w3.org/2000/svg">
<path d="M5.10156 16.2244V23.5414C5.10156 27.6806 5.10156 29.7502 6.38697 31.036C7.67237 32.3219 9.7412 32.3219 13.8789 32.3219H22.6561C26.7938 32.3219 28.8626 32.3219 30.148 31.036C31.4334 29.7502 31.4334 27.6806 31.4334 23.5414V16.2244" stroke="#7745A2" stroke-width="2.19432" stroke-linecap="round"/>
<path d="M10.9531 27.1919H16.8047" stroke="#7745A2" stroke-width="2.19432" stroke-linecap="round"/>
<path d="M15.5419 13.1849C15.1294 14.6747 13.6292 17.2447 10.7787 17.6171C8.26192 17.946 6.35305 16.8474 5.86547 16.388C5.32789 16.0156 4.1027 14.8237 3.80266 14.0788C3.50261 13.3339 3.85266 11.7199 4.1027 11.062L5.10224 8.1678C5.34625 7.44087 5.91746 5.72154 6.50307 5.14C7.08869 4.55846 8.27433 4.53317 8.76233 4.53317H19.0106C21.6484 4.57043 27.4163 4.50965 28.5564 4.53317C29.6966 4.55669 30.3818 5.51245 30.5818 5.92215C32.283 10.0428 32.9446 12.4028 32.9446 13.4084C32.7226 14.4811 31.8036 16.5039 28.5564 17.3936C25.1816 18.3183 23.2683 16.5198 22.668 15.8293M14.1543 15.8293C14.6293 16.4127 16.1196 17.5873 18.2798 17.6171C20.4402 17.6468 22.3055 16.1396 22.9681 15.3824C23.1556 15.1589 23.5607 14.4959 23.9808 13.1849" stroke="#7745A2" stroke-width="2.19432" stroke-linecap="round" stroke-linejoin="round"/>
</svg>
