<svg width="22" height="23" viewBox="0 0 22 23" fill="none" xmlns="http://www.w3.org/2000/svg">
<path d="M3.65234 11.1372V13.4463C3.65234 16.3914 3.65234 17.8639 4.45652 18.8614C4.61899 19.0628 4.80252 19.2463 5.00402 19.4088C6.00143 20.213 7.47398 20.213 10.4191 20.213C11.0594 20.213 11.3795 20.213 11.6728 20.1095C11.7338 20.088 11.7935 20.0633 11.8518 20.0354C12.1324 19.9012 12.3587 19.6748 12.8115 19.222L17.1102 14.9233C17.6349 14.3986 17.8972 14.1363 18.0354 13.8027C18.1736 13.4692 18.1736 13.0982 18.1736 12.3562V9.32209C18.1736 5.8994 18.1736 4.18807 17.1102 3.12477C16.047 2.06148 14.3356 2.06148 10.913 2.06148M11.8205 19.7592V19.3054C11.8205 16.7384 11.8205 15.4549 12.618 14.6575C13.4155 13.86 14.699 13.86 17.266 13.86H17.7198" stroke="white" stroke-width="1.36136" stroke-linecap="round" stroke-linejoin="round"/>
<path d="M9.0978 4.78421C8.56248 4.23345 7.13768 2.06148 6.37507 2.06148C5.61246 2.06148 4.18767 4.23345 3.65234 4.78421M6.37507 2.96905V9.32209" stroke="white" stroke-width="1.36136" stroke-linecap="round" stroke-linejoin="round"/>
</svg>
