<svg width="126" height="142" viewBox="0 0 126 142" fill="none" xmlns="http://www.w3.org/2000/svg">
<path fill-rule="evenodd" clip-rule="evenodd" d="M119.822 83.5693C122.717 83.5693 125.064 85.8944 125.064 88.7624C125.064 91.6305 122.717 93.9555 119.822 93.9555H89.8663C92.7615 93.9555 95.1085 96.2805 95.1085 99.1486C95.1085 102.017 92.7615 104.342 89.8663 104.342H106.342C109.237 104.342 111.584 106.667 111.584 109.535C111.584 112.403 109.237 114.728 106.342 114.728H98.7226C95.0722 114.728 92.113 117.053 92.113 119.921C92.113 121.833 93.6107 123.564 96.6063 125.114C99.5015 125.114 101.848 127.439 101.848 130.307C101.848 133.175 99.5015 135.5 96.6063 135.5H34.4487C31.5536 135.5 29.2065 133.175 29.2065 130.307C29.2065 127.439 31.5536 125.114 34.4487 125.114H5.2422C2.34701 125.114 0 122.789 0 119.921C0 117.053 2.34701 114.728 5.2422 114.728H35.1976C38.0928 114.728 40.4398 112.403 40.4398 109.535C40.4398 106.667 38.0928 104.342 35.1976 104.342H16.4755C13.5803 104.342 11.2333 102.017 11.2333 99.1486C11.2333 96.2805 13.5803 93.9555 16.4755 93.9555H46.4309C43.5357 93.9555 41.1887 91.6305 41.1887 88.7624C41.1887 85.8944 43.5357 83.5693 46.4309 83.5693H119.822ZM119.822 104.342C122.717 104.342 125.064 106.667 125.064 109.535C125.064 112.403 122.717 114.728 119.822 114.728C116.927 114.728 114.58 112.403 114.58 109.535C114.58 106.667 116.927 104.342 119.822 104.342Z" fill="#7745A2" fill-opacity="0.11"/>
<path d="M61.65 134.176C58.5216 134.176 55.5332 132.918 49.556 130.4C34.6775 124.133 27.2383 121 27.2383 115.729V78.897M61.65 134.176C64.7785 134.176 67.7669 132.918 73.7443 130.4C88.6228 124.133 96.0618 121 96.0618 115.729V78.897M61.65 134.176V96.0526M27.2383 78.897C27.2383 81.2387 30.3031 82.7174 36.4328 85.6748L47.6021 91.0637C54.4955 94.3898 57.9424 96.0526 61.65 96.0526M27.2383 78.897C27.2383 76.5553 30.3031 75.0766 36.4328 72.1192L42.5324 69.1763M96.0618 78.897C96.0618 81.2387 92.9969 82.7174 86.8674 85.6748L75.6981 91.0637C68.8046 94.3898 65.3577 96.0526 61.65 96.0526M96.0618 78.897C96.0618 76.5553 92.9969 75.0766 86.8674 72.1192L80.9382 69.2585M38.7089 99.8651L46.3559 103.678" stroke="#7745A2" stroke-width="3.82353" stroke-linecap="round" stroke-linejoin="round"/>
<path d="M61.6358 84.4703V57.7058M61.6358 57.7058C60.6299 57.6921 59.6377 58.3949 58.9055 59.2528L54.0029 65.1166M61.6358 57.7058C62.6063 57.7189 63.5889 58.418 64.3658 59.2528L69.297 65.1166" stroke="#7745A2" stroke-width="3.82353" stroke-linecap="round"/>
<path d="M52.9999 25.8565C51.9359 21.1502 51.404 18.7971 52.1626 17.1693C52.6847 16.049 53.5849 15.1489 54.7051 14.6268C56.3329 13.8681 58.686 14.4001 63.3923 15.464C68.6896 16.6615 71.3384 17.2602 72.4975 18.7806C73.2926 19.8233 73.6696 21.1253 73.5548 22.4311C73.3872 24.3349 71.4678 26.2544 67.629 30.0932C63.7902 33.932 61.8708 35.8514 59.967 36.0189C58.6612 36.1338 57.3592 35.7568 56.3164 34.9617C54.796 33.8025 54.1974 31.1538 52.9999 25.8565Z" stroke="#D9488F" stroke-width="3.82353" stroke-linejoin="round"/>
<path d="M32.4812 50.8215C29.4774 47.8177 27.9755 46.3158 27.6875 44.4979C27.5945 43.9109 27.5945 43.3128 27.6875 42.7257C27.9755 40.9078 29.4774 39.4059 32.4812 36.4021C35.485 33.3983 36.9869 31.8964 38.8048 31.6084C39.3919 31.5154 39.99 31.5154 40.577 31.6084C42.3949 31.8964 43.8968 33.3983 46.9006 36.4021C49.9045 39.4059 51.4064 40.9078 51.6943 42.7257C51.7873 43.3128 51.7873 43.9109 51.6943 44.4979C51.4064 46.3158 49.9045 47.8177 46.9006 50.8215C43.8968 53.8254 42.3949 55.3273 40.577 55.6152C39.99 55.7082 39.3919 55.7082 38.8048 55.6152C36.9869 55.3273 35.485 53.8254 32.4812 50.8215Z" stroke="#D9488F" stroke-width="3.82353" stroke-linejoin="round"/>
<path d="M89.2581 51.7229C93.2399 47.7411 93.2399 41.2853 89.2581 37.3035C85.2762 33.3217 78.8204 33.3217 74.8386 37.3035C70.8568 41.2853 70.8568 47.7411 74.8386 51.7229C78.8204 55.7047 85.2762 55.7047 89.2581 51.7229Z" stroke="#D9488F" stroke-width="3.82353" stroke-linejoin="round"/>
</svg>
