<svg width="126" height="137" viewBox="0 0 126 137" fill="none" xmlns="http://www.w3.org/2000/svg">
<path d="M72.4883 58.1097L79.2169 71.6783C80.1346 73.5671 82.5813 75.3788 84.646 75.7257L96.8415 77.7687C104.641 79.0793 106.476 84.7843 100.856 90.4121L91.3746 99.9717C89.7687 101.591 88.8897 104.713 89.3864 106.949L92.1011 118.783C94.2419 128.15 89.3099 131.773 81.0905 126.878L69.6593 120.055C67.5949 118.821 64.1924 118.821 62.0894 120.055L50.6585 126.878C42.477 131.773 37.507 128.111 39.6479 118.783L42.3623 106.949C42.8593 104.713 41.98 101.591 40.3743 99.9717L30.893 90.4121C25.3113 84.7843 27.1082 79.0793 34.9073 77.7687L47.103 75.7257C49.1292 75.3788 51.576 73.5671 52.4936 71.6783L59.2222 58.1097C62.8924 50.7473 68.8563 50.7473 72.4883 58.1097Z" stroke="#7745A2" stroke-width="3.82353" stroke-linecap="round" stroke-linejoin="round"/>
<path fill-rule="evenodd" clip-rule="evenodd" d="M120.305 64.8232C123.191 64.8232 125.53 67.1514 125.53 70.0232C125.53 72.8951 123.191 75.2232 120.305 75.2232H90.4496C93.3351 75.2232 95.6743 77.5514 95.6743 80.4232C95.6743 83.2951 93.3351 85.6232 90.4496 85.6232H106.87C109.756 85.6232 112.095 87.9514 112.095 90.8232C112.095 93.6951 109.756 96.0232 106.87 96.0232H99.2764C95.6381 96.0232 92.6887 98.3514 92.6887 101.223C92.6887 103.138 94.1815 104.871 97.1671 106.423C100.053 106.423 102.392 108.751 102.392 111.623C102.392 114.495 100.053 116.823 97.1671 116.823H35.2167C32.3312 116.823 29.992 114.495 29.992 111.623C29.992 108.751 32.3312 106.423 35.2167 106.423H6.10754C3.222 106.423 0.882812 104.095 0.882812 101.223C0.882812 98.3514 3.222 96.0232 6.10754 96.0232H35.9631C38.8487 96.0232 41.1879 93.6951 41.1879 90.8232C41.1879 87.9514 38.8487 85.6232 35.9631 85.6232H17.3034C14.4178 85.6232 12.0787 83.2951 12.0787 80.4232C12.0787 77.5514 14.4178 75.2232 17.3034 75.2232H47.159C44.2734 75.2232 41.9342 72.8951 41.9342 70.0232C41.9342 67.1514 44.2734 64.8232 47.159 64.8232H120.305ZM120.305 85.6232C123.191 85.6232 125.53 87.9514 125.53 90.8232C125.53 93.6951 123.191 96.0232 120.305 96.0232C117.42 96.0232 115.08 93.6951 115.08 90.8232C115.08 87.9514 117.42 85.6232 120.305 85.6232Z" fill="#7745A2" fill-opacity="0.11"/>
<path d="M75.1527 22.2507C75.1527 16.9297 70.8392 12.6162 65.5182 12.6162C60.1973 12.6162 55.8838 16.9297 55.8838 22.2507C55.8838 27.5716 60.1973 31.8851 65.5182 31.8851C70.8392 31.8851 75.1527 27.5716 75.1527 22.2507Z" stroke="#D9488F" stroke-width="4.12469" stroke-linecap="round" stroke-linejoin="round"/>
<path d="M80.6586 45.6492C80.6586 38.0479 73.8804 31.8857 65.5188 31.8857C57.1572 31.8857 50.3789 38.0479 50.3789 45.6492" stroke="#D9488F" stroke-width="4.12469" stroke-linecap="round" stroke-linejoin="round"/>
<path d="M88.0291 43.2943C88.7306 44.0429 89.5523 44.7021 90.4865 45.2415C95.5907 48.1884 102.117 46.4396 105.064 41.3354C108.011 36.2312 106.262 29.7046 101.158 26.7577C96.3658 23.9908 90.3194 25.3634 87.1595 29.7663" stroke="#D9488F" stroke-width="4.12469" stroke-linecap="round" stroke-linejoin="round"/>
<path d="M97.3858 66.8283C101.596 59.5367 98.5063 49.8716 90.4854 45.2407" stroke="#D9488F" stroke-width="4.12469" stroke-linecap="round" stroke-linejoin="round"/>
<path d="M38.7917 28.2394C34.5999 24.8044 28.4043 25.0435 24.4913 28.9565C20.3238 33.124 20.3238 39.8809 24.4913 44.0484C28.6588 48.216 35.4157 48.216 39.5833 44.0484C40.3461 43.2856 40.9693 42.4361 41.4529 41.5316" stroke="#D9488F" stroke-width="4.12469" stroke-linecap="round" stroke-linejoin="round"/>
<path d="M39.5836 44.0483C33.0346 50.5973 32.552 60.7327 38.5056 66.6862" stroke="#D9488F" stroke-width="4.12469" stroke-linecap="round" stroke-linejoin="round"/>
</svg>
