<svg width="135" height="112" viewBox="0 0 135 112" fill="none" xmlns="http://www.w3.org/2000/svg">
<path fill-rule="evenodd" clip-rule="evenodd" d="M128.63 46.2236C131.738 46.2236 134.258 48.7196 134.258 51.7985C134.258 54.8774 131.738 57.3733 128.63 57.3733H96.4728C99.5809 57.3733 102.1 59.8693 102.1 62.9482C102.1 66.0271 99.5809 68.523 96.4728 68.523H114.16C117.268 68.523 119.787 71.019 119.787 74.0979C119.787 77.1768 117.268 79.6728 114.16 79.6728H105.98C102.061 79.6728 98.8847 82.1687 98.8847 85.2476C98.8847 87.3003 100.493 89.1584 103.708 90.8225C106.816 90.8225 109.336 93.3184 109.336 96.3973C109.336 99.4762 106.816 101.972 103.708 101.972H36.9813C33.8732 101.972 31.3537 99.4762 31.3537 96.3973C31.3537 93.3184 33.8732 90.8225 36.9813 90.8225H5.62758C2.51955 90.8225 0 88.3265 0 85.2476C0 82.1687 2.51955 79.6728 5.62758 79.6728H37.7852C40.8932 79.6728 43.4128 77.1768 43.4128 74.0979C43.4128 71.019 40.8932 68.523 37.7852 68.523H17.6867C14.5787 68.523 12.0591 66.0271 12.0591 62.9482C12.0591 59.8693 14.5787 57.3733 17.6867 57.3733H49.8443C46.7363 57.3733 44.2167 54.8774 44.2167 51.7985C44.2167 48.7196 46.7363 46.2236 49.8443 46.2236H128.63ZM128.63 68.523C131.738 68.523 134.258 71.019 134.258 74.0979C134.258 77.1768 131.738 79.6728 128.63 79.6728C125.522 79.6728 123.003 77.1768 123.003 74.0979C123.003 71.019 125.522 68.523 128.63 68.523Z" fill="#7745A2" fill-opacity="0.11"/>
<path d="M19.7002 46.8734C19.7002 29.33 19.7002 20.5583 25.1502 15.1082C30.6003 9.6582 39.372 9.6582 56.9154 9.6582H75.523C93.0662 9.6582 101.838 9.6582 107.288 15.1082C112.738 20.5583 112.738 29.33 112.738 46.8734C112.738 64.4166 112.738 73.1887 107.288 78.6384C101.838 84.0886 93.0662 84.0886 75.523 84.0886H56.9154C39.372 84.0886 30.6003 84.0886 25.1502 78.6384C19.7002 73.1887 19.7002 64.4166 19.7002 46.8734Z" stroke="#7745A2" stroke-width="3.11377" stroke-linecap="round"/>
<path d="M84.8265 102.696C79.3526 99.7372 72.9972 98.0439 66.2189 98.0439C59.4406 98.0439 53.0852 99.7372 47.6113 102.696" stroke="#7745A2" stroke-width="3.11377" stroke-linecap="round"/>
<path d="M64.8256 67.8812H61.6336C56.3907 67.8812 53.7693 67.8812 51.9443 66.2523C50.1194 64.6237 49.6586 61.8728 48.7369 56.3708L46.1233 40.7689C45.6982 38.231 45.4857 36.9622 46.1402 36.1288C46.7947 35.2954 48.0039 35.2954 50.4223 35.2954H81.4763C83.8946 35.2954 85.1039 35.2954 85.7583 36.1288C86.4129 36.9622 86.2003 38.231 85.7751 40.7689L84.2452 49.9028" stroke="#D9488F" stroke-width="3.11377" stroke-linecap="round"/>
<path d="M70.4434 64.1354C70.4434 64.1354 72.4097 64.1354 74.3761 67.881C74.3761 67.881 80.6223 58.5172 86.1744 56.6445" stroke="#6ACBE1" stroke-width="3.11377" stroke-linecap="round" stroke-linejoin="round"/>
<path d="M54.7129 35.2947V34.171C54.7129 27.9653 59.7436 22.9346 65.9494 22.9346C72.155 22.9346 77.1858 27.9653 77.1858 34.171V35.2947" stroke="#D9488F" stroke-width="3.11377"/>
<path d="M49.0947 57.7676H64.8258" stroke="#D9488F" stroke-width="3.11377" stroke-linecap="round"/>
</svg>
