<svg width="121" height="108" viewBox="0 0 121 108" fill="none" xmlns="http://www.w3.org/2000/svg">
<path fill-rule="evenodd" clip-rule="evenodd" d="M115.759 47.5391C118.556 47.5391 120.824 49.7957 120.824 52.5794C120.824 55.3631 118.556 57.6198 115.759 57.6198H86.8193C89.6163 57.6198 91.8838 59.8764 91.8838 62.6601C91.8838 65.4438 89.6163 67.7004 86.8193 67.7004H102.736C105.533 67.7004 107.801 69.9571 107.801 72.7408C107.801 75.5245 105.533 77.7811 102.736 77.7811H95.3754C91.8487 77.7811 88.9898 80.0378 88.9898 82.8215C88.9898 84.6774 90.4368 86.3573 93.3308 87.8618C96.1278 87.8618 98.3952 90.1185 98.3952 92.9022C98.3952 95.6859 96.1278 97.9425 93.3308 97.9425H33.2807C30.4837 97.9425 28.2163 95.6859 28.2163 92.9022C28.2163 90.1185 30.4837 87.8618 33.2807 87.8618H5.06446C2.26743 87.8618 0 85.6052 0 82.8215C0 80.0378 2.26743 77.7811 5.06446 77.7811H34.0042C36.8013 77.7811 39.0687 75.5245 39.0687 72.7408C39.0687 69.9571 36.8013 67.7004 34.0042 67.7004H15.9169C13.1198 67.7004 10.8524 65.4438 10.8524 62.6601C10.8524 59.8764 13.1198 57.6198 15.9169 57.6198H44.8566C42.0596 57.6198 39.7922 55.3631 39.7922 52.5794C39.7922 49.7957 42.0596 47.5391 44.8566 47.5391H115.759ZM115.759 67.7004C118.556 67.7004 120.824 69.9571 120.824 72.7408C120.824 75.5245 118.556 77.7811 115.759 77.7811C112.962 77.7811 110.695 75.5245 110.695 72.7408C110.695 69.9571 112.962 67.7004 115.759 67.7004Z" fill="#7745A2" fill-opacity="0.11"/>
<path d="M62.8333 93.9188H56.5835C40.5905 93.9188 32.594 93.9188 27.6256 88.8558C22.6572 83.7933 22.6572 75.6448 22.6572 59.3478C22.6572 43.0509 22.6572 34.9024 27.6256 29.8396C32.594 24.7769 40.5905 24.7769 56.5835 24.7769H73.5467C89.5396 24.7769 97.5364 24.7769 102.505 29.8396C106.327 33.7349 107.209 39.4568 107.412 49.3111" stroke="#7745A2" stroke-width="3.82353" stroke-linecap="round" stroke-linejoin="round"/>
<path d="M97.8222 84.3279L91.8001 80.3132V70.2765M71.7266 78.3059C71.7266 89.3922 80.7137 98.3793 91.8001 98.3793C102.886 98.3793 111.874 89.3922 111.874 78.3059C111.874 67.2195 102.886 58.2324 91.8001 58.2324C80.7137 58.2324 71.7266 67.2195 71.7266 78.3059Z" stroke="#D9488F" stroke-width="3.82353" stroke-linecap="round" stroke-linejoin="round"/>
<path d="M85.109 24.7777L84.666 23.3991C82.4575 16.5293 81.3534 13.0944 78.7251 11.1297C76.0964 9.16504 72.6054 9.16504 65.6225 9.16504H64.4484C57.4657 9.16504 53.9743 9.16504 51.3458 11.1297C48.7173 13.0944 47.6132 16.5293 45.405 23.3991L44.9619 24.7777" stroke="#7745A2" stroke-width="3.82353" stroke-linecap="round" stroke-linejoin="round"/>
</svg>
